<svg xmlns="http://www.w3.org/2000/svg" viewBox="0 0 100 100" width="200" height="200">

  <circle cx="50" cy="50" r="48" stroke="#4A90E2" stroke-width="2" fill="none"/>

  <circle cx="30" cy="40" r="8" fill="#4A90E2"/>
  <circle cx="50" cy="35" r="10" fill="#4A90E2"/>
  <circle cx="70" cy="40" r="8" fill="#4A90E2"/>

  <path d="M25 60 Q30 55 35 60 T45 60" stroke="#4A90E2" stroke-width="3" fill="none"/>
  <path d="M45 55 Q50 50 55 55 T65 55" stroke="#4A90E2" stroke-width="3" fill="none"/>
  <path d="M65 60 Q70 55 75 60 T85 60" stroke="#4A90E2" stroke-width="3" fill="none"/>

  <g transform="translate(50,75) scale(0.5)">
    <circle cx="0" cy="0" r="8" fill="#4A90E2"/>
    <path d="M0,-12 L2,-8 L8,-8 L10,-12 L12,-10 L8,-6 L8,-2 L12,0 L8,2 L8,6 L12,10 L10,12 L8,8 L2,8 L0,12 L-2,8 L-8,8 L-10,12 L-12,10 L-8,6 L-8,2 L-12,0 L-8,-2 L-8,-6 L-12,-10 L-10,-12 L-8,-8 L-2,-8 Z" fill="#4A90E2"/>
  </g>

  <text x="50" y="95" font-family="Arial" font-size="10" text-anchor="middle" fill="#4A90E2">EMS</text>
</svg>
